<svg width="1440" height="924" viewBox="0 0 1440 924" fill="none" xmlns="http://www.w3.org/2000/svg">
<g clip-path="url(#clip0_1034_1195)">
<path opacity="0.01" d="M792 868.791C914.55 868.791 1013.9 780.483 1013.9 671.55C1013.9 562.617 914.55 474.309 792 474.309C669.45 474.309 570.104 562.617 570.104 671.55C570.104 780.483 669.45 868.791 792 868.791Z" fill="#FFE3DC"/>
<path opacity="0.02" d="M792 862.653C910.736 862.653 1006.99 777.093 1006.99 671.55C1006.99 566.007 910.736 480.447 792 480.447C673.264 480.447 577.009 566.007 577.009 671.55C577.009 777.093 673.264 862.653 792 862.653Z" fill="#FFE3DC"/>
<path opacity="0.02" d="M792 856.515C906.923 856.515 1000.09 773.703 1000.09 671.55C1000.09 569.397 906.923 486.585 792 486.585C677.077 486.585 583.914 569.397 583.914 671.55C583.914 773.703 677.077 856.515 792 856.515Z" fill="#FFE3DC"/>
<path opacity="0.02" d="M792 850.394C903.119 850.394 993.199 770.323 993.199 671.55C993.199 572.778 903.119 492.707 792 492.707C680.881 492.707 590.801 572.778 590.801 671.55C590.801 770.323 680.881 850.394 792 850.394Z" fill="#FFE3DC"/>
<path opacity="0.03" d="M792 844.256C899.305 844.256 986.294 766.933 986.294 671.55C986.294 576.168 899.305 498.845 792 498.845C684.695 498.845 597.706 576.168 597.706 671.55C597.706 766.933 684.695 844.256 792 844.256Z" fill="#FFE3DC"/>
<path opacity="0.03" d="M792 838.117C895.492 838.117 979.388 763.543 979.388 671.55C979.388 579.557 895.492 504.982 792 504.982C688.508 504.982 604.612 579.557 604.612 671.55C604.612 763.543 688.508 838.117 792 838.117Z" fill="#FFE3DC"/>
<path opacity="0.03" d="M792 831.996C891.688 831.996 972.502 760.162 972.502 671.55C972.502 582.938 891.688 511.104 792 511.104C692.312 511.104 611.498 582.938 611.498 671.55C611.498 760.162 692.312 831.996 792 831.996Z" fill="#FFE3DC"/>
<path opacity="0.04" d="M792 825.858C887.875 825.858 965.597 756.772 965.597 671.55C965.597 586.328 887.875 517.242 792 517.242C696.125 517.242 618.404 586.328 618.404 671.55C618.404 756.772 696.125 825.858 792 825.858Z" fill="#FFE3DC"/>
<path opacity="0.04" d="M792 819.737C884.071 819.737 958.71 753.391 958.71 671.55C958.71 589.709 884.071 523.364 792 523.364C699.929 523.364 625.29 589.709 625.29 671.55C625.29 753.391 699.929 819.737 792 819.737Z" fill="#FFE3DC"/>
<path opacity="0.04" d="M792 813.598C880.258 813.598 951.805 750.001 951.805 671.55C951.805 593.099 880.258 529.501 792 529.501C703.742 529.501 632.195 593.099 632.195 671.55C632.195 750.001 703.742 813.598 792 813.598Z" fill="#FFE3DC"/>
<path opacity="0.05" d="M792 807.461C876.444 807.461 944.899 746.611 944.899 671.55C944.899 596.489 876.444 535.64 792 535.64C707.556 535.64 639.101 596.489 639.101 671.55C639.101 746.611 707.556 807.461 792 807.461Z" fill="#FFE3DC"/>
<path opacity="0.05" d="M792 801.339C872.641 801.339 938.013 743.231 938.013 671.55C938.013 599.87 872.641 541.761 792 541.761C711.359 541.761 645.987 599.87 645.987 671.55C645.987 743.231 711.359 801.339 792 801.339Z" fill="#FFE3DC"/>
<path opacity="0.05" d="M792 795.201C868.827 795.201 931.107 739.84 931.107 671.55C931.107 603.259 868.827 547.899 792 547.899C715.173 547.899 652.893 603.259 652.893 671.55C652.893 739.84 715.173 795.201 792 795.201Z" fill="#FFE3DC"/>
<path opacity="0.05" d="M792 789.08C865.023 789.08 924.221 736.46 924.221 671.55C924.221 606.64 865.023 554.021 792 554.021C718.977 554.021 659.779 606.64 659.779 671.55C659.779 736.46 718.977 789.08 792 789.08Z" fill="#FFE3DC"/>
<path opacity="0.06" d="M792 782.942C861.21 782.942 917.315 733.07 917.315 671.55C917.315 610.03 861.21 560.159 792 560.159C722.79 560.159 666.685 610.03 666.685 671.55C666.685 733.07 722.79 782.942 792 782.942Z" fill="#FFE3DC"/>
<path opacity="0.06" d="M792 776.803C857.396 776.803 910.41 729.68 910.41 671.55C910.41 613.42 857.396 566.296 792 566.296C726.604 566.296 673.59 613.42 673.59 671.55C673.59 729.68 726.604 776.803 792 776.803Z" fill="#FFE3DC"/>
<path opacity="0.06" d="M792 770.682C853.593 770.682 903.524 726.299 903.524 671.55C903.524 616.801 853.593 572.418 792 572.418C730.407 572.418 680.477 616.801 680.477 671.55C680.477 726.299 730.407 770.682 792 770.682Z" fill="#FFE3DC"/>
<path opacity="0.07" d="M792 764.544C849.779 764.544 896.618 722.909 896.618 671.55C896.618 620.191 849.779 578.556 792 578.556C734.221 578.556 687.382 620.191 687.382 671.55C687.382 722.909 734.221 764.544 792 764.544Z" fill="#FFE3DC"/>
<path opacity="0.07" d="M792 758.423C845.976 758.423 889.732 719.529 889.732 671.55C889.732 623.572 845.976 584.678 792 584.678C738.024 584.678 694.268 623.572 694.268 671.55C694.268 719.529 738.024 758.423 792 758.423Z" fill="#FFE3DC"/>
<path opacity="0.07" d="M792 752.284C842.162 752.284 882.826 716.138 882.826 671.55C882.826 626.961 842.162 590.815 792 590.815C741.838 590.815 701.174 626.961 701.174 671.55C701.174 716.138 741.838 752.284 792 752.284Z" fill="#FFE3DC"/>
<path opacity="0.08" d="M792 746.147C838.348 746.147 875.921 712.749 875.921 671.55C875.921 630.352 838.348 596.954 792 596.954C745.652 596.954 708.079 630.352 708.079 671.55C708.079 712.749 745.652 746.147 792 746.147Z" fill="#FFE3DC"/>
<path opacity="0.08" d="M792 740.025C834.545 740.025 869.034 709.368 869.034 671.55C869.034 633.732 834.545 603.075 792 603.075C749.455 603.075 714.966 633.732 714.966 671.55C714.966 709.368 749.455 740.025 792 740.025Z" fill="#FFE3DC"/>
<path opacity="0.08" d="M792 733.887C830.731 733.887 862.129 705.978 862.129 671.55C862.129 637.122 830.731 609.213 792 609.213C753.269 609.213 721.871 637.122 721.871 671.55C721.871 705.978 753.269 733.887 792 733.887Z" fill="#FFE3DC"/>
<path opacity="0.09" d="M792 727.749C826.918 727.749 855.224 702.588 855.224 671.55C855.224 640.512 826.918 615.351 792 615.351C757.082 615.351 728.776 640.512 728.776 671.55C728.776 702.588 757.082 727.749 792 727.749Z" fill="#FFE3DC"/>
<path opacity="0.09" d="M792 721.628C823.114 721.628 848.337 699.207 848.337 671.55C848.337 643.893 823.114 621.473 792 621.473C760.886 621.473 735.663 643.893 735.663 671.55C735.663 699.207 760.886 721.628 792 721.628Z" fill="#FFE3DC"/>
<path opacity="0.09" d="M792 715.489C819.301 715.489 841.432 695.817 841.432 671.55C841.432 647.283 819.301 627.61 792 627.61C764.699 627.61 742.568 647.283 742.568 671.55C742.568 695.817 764.699 715.489 792 715.489Z" fill="#FFE3DC"/>
<path opacity="0.1" d="M792 709.368C815.497 709.368 834.545 692.436 834.545 671.55C834.545 650.664 815.497 633.732 792 633.732C768.503 633.732 749.455 650.664 749.455 671.55C749.455 692.436 768.503 709.368 792 709.368Z" fill="#FFE3DC"/>
<path opacity="0.1" d="M792 703.23C811.683 703.23 827.64 689.047 827.64 671.55C827.64 654.054 811.683 639.87 792 639.87C772.317 639.87 756.36 654.054 756.36 671.55C756.36 689.047 772.317 703.23 792 703.23Z" fill="#FFE3DC"/>
<path opacity="0.08" d="M792 817.822C1005.24 817.822 1178.1 796.806 1178.1 770.88C1178.1 744.954 1005.24 723.938 792 723.938C578.763 723.938 405.9 744.954 405.9 770.88C405.9 796.806 578.763 817.822 792 817.822Z" fill="#5D2D54"/>
<path opacity="0.08" d="M792 800.481C943.562 800.481 1066.43 787.228 1066.43 770.88C1066.43 754.532 943.562 741.279 792 741.279C640.438 741.279 517.572 754.532 517.572 770.88C517.572 787.228 640.438 800.481 792 800.481Z" fill="#743859"/>
<path opacity="0.1" d="M792 787.743C895.994 787.743 980.298 780.193 980.298 770.88C980.298 761.566 895.994 754.017 792 754.017C688.006 754.017 603.702 761.566 603.702 770.88C603.702 780.193 688.006 787.743 792 787.743Z" fill="#743859"/>
<path opacity="0.1" d="M773.586 770.88L790.292 869.55L810.414 770.88H773.586Z" fill="url(#paint0_linear_1034_1195)"/>
<path d="M727.013 644.16L738.54 670.56L750.42 644.16H727.013Z" fill="url(#paint1_radial_1034_1195)"/>
<path opacity="0.2" d="M732.73 644.16L744.48 670.56L756.36 644.16H732.73Z" fill="#1D1438"/>
<path opacity="0.3" d="M727.013 644.16L768.24 649.44L750.42 644.16H727.013Z" fill="#FF8889"/>
<path d="M856.987 644.16L845.46 670.56L833.58 644.16H856.987Z" fill="url(#paint2_linear_1034_1195)"/>
<path opacity="0.2" d="M851.27 644.16L839.52 670.56L827.64 644.16H851.27Z" fill="#1D1438"/>
<path d="M792 586.08L655.38 770.88H928.62L792 586.08Z" fill="url(#paint3_radial_1034_1195)"/>
<path d="M792 586.08L655.38 770.88H774.18L792 665.28V586.08Z" fill="url(#paint4_linear_1034_1195)"/>
<path d="M792 586.08L928.62 770.88H809.82L792 665.28V586.08Z" fill="url(#paint5_linear_1034_1195)"/>
<path d="M792 586.08L655.38 770.88H744.48L792 586.08Z" fill="url(#paint6_linear_1034_1195)"/>
<path d="M792 586.08L655.38 770.88H661.32L792 586.08Z" fill="url(#paint7_linear_1034_1195)"/>
<path d="M792 586.08L928.62 770.88H839.52L792 586.08Z" fill="url(#paint8_linear_1034_1195)"/>
<path opacity="0.2" d="M792 586.08L928.62 770.88H792V586.08Z" fill="#1D1438"/>
<path d="M655.38 755.04H649.44V770.88H655.38V755.04Z" fill="url(#paint9_linear_1034_1195)"/>
<path opacity="0.3" d="M649.44 760.32L655.38 755.04V770.88H649.44V760.32Z" fill="#37204D"/>
<path d="M934.56 755.04H928.62V770.88H934.56V755.04Z" fill="url(#paint10_linear_1034_1195)"/>
<path opacity="0.3" d="M928.62 760.32L934.56 755.04V770.88H928.62V760.32Z" fill="#37204D"/>
<path opacity="0.01" d="M849.018 745.064C880.501 717.08 880.501 671.707 849.018 643.723C817.535 615.738 766.491 615.738 735.008 643.723C703.526 671.707 703.526 717.08 735.008 745.064C766.491 773.049 817.535 773.049 849.018 745.064Z" fill="#FF8889"/>
<path opacity="0.02" d="M792 763.373C834.955 763.373 869.777 732.42 869.777 694.238C869.777 656.055 834.955 625.103 792 625.103C749.045 625.103 714.223 656.055 714.223 694.238C714.223 732.42 749.045 763.373 792 763.373Z" fill="#FF8889"/>
<path opacity="0.02" d="M865.822 705.438C872.89 669.181 845.553 634.696 804.764 628.414C763.975 622.132 725.18 646.431 718.112 682.688C711.045 718.945 738.382 753.43 779.17 759.712C819.959 765.994 858.755 741.695 865.822 705.438Z" fill="#FF8889"/>
<path opacity="0.03" d="M863.188 703.831C869.372 668.849 842.481 636.033 803.126 630.537C763.77 625.04 726.853 648.943 720.669 683.925C714.485 718.908 741.376 751.723 780.731 757.22C820.087 762.717 857.004 738.814 863.188 703.831Z" fill="#FF8889"/>
<path opacity="0.03" d="M792 755.386C830.27 755.386 861.294 727.809 861.294 693.792C861.294 659.774 830.27 632.197 792 632.197C753.73 632.197 722.706 659.774 722.706 693.792C722.706 727.809 753.73 755.386 792 755.386Z" fill="#FF8889"/>
<path opacity="0.04" d="M824.677 745.129C856.645 729.085 867.928 693.043 849.878 664.627C831.829 636.211 791.281 626.182 759.313 642.226C727.345 658.27 716.062 694.313 734.112 722.729C752.162 751.144 792.709 761.174 824.677 745.129Z" fill="#FF8889"/>
<path opacity="0.04" d="M854.966 702.059C860.259 671.168 836.378 642.311 801.625 637.606C766.873 632.901 734.409 654.129 729.116 685.021C723.823 715.912 747.705 744.768 782.457 749.473C817.21 754.178 849.673 732.95 854.966 702.059Z" fill="#FF8889"/>
<path opacity="0.05" d="M792 747.4C825.585 747.4 852.811 723.2 852.811 693.346C852.811 663.493 825.585 639.292 792 639.292C758.415 639.292 731.189 663.493 731.189 693.346C731.189 723.2 758.415 747.4 792 747.4Z" fill="#FF8889"/>
<path opacity="0.05" d="M792 744.727C824.027 744.727 849.989 721.649 849.989 693.181C849.989 664.713 824.027 641.635 792 641.635C759.973 641.635 734.011 664.713 734.011 693.181C734.011 721.649 759.973 744.727 792 744.727Z" fill="#FF8889"/>
<path opacity="0.06" d="M846.355 701.471C851.576 674.798 831.482 649.413 801.475 644.773C771.468 640.132 742.91 657.992 737.689 684.665C732.468 711.339 752.561 736.724 782.568 741.364C812.576 746.005 841.134 728.144 846.355 701.471Z" fill="#FF8889"/>
<path opacity="0.06" d="M840.863 709.662C851.243 685.688 837.793 658.773 810.822 649.546C783.851 640.319 753.572 652.274 743.191 676.249C732.811 700.223 746.261 727.138 773.232 736.365C800.203 745.592 830.482 733.637 840.863 709.662Z" fill="#FF8889"/>
<path opacity="0.07" d="M792 736.741C819.341 736.741 841.506 717.04 841.506 692.736C841.506 668.432 819.341 648.73 792 648.73C764.658 648.73 742.494 668.432 742.494 692.736C742.494 717.04 764.658 736.741 792 736.741Z" fill="#FF8889"/>
<path opacity="0.07" d="M838.036 699.472C842.308 676.88 825.166 655.487 799.75 651.69C774.333 647.893 750.266 663.13 745.995 685.723C741.723 708.315 758.865 729.708 784.281 733.505C809.698 737.302 833.765 722.065 838.036 699.472Z" fill="#FF8889"/>
<path opacity="0.08" d="M835.356 698.28C838.989 677 822.527 657.13 798.587 653.9C774.646 650.67 752.293 665.303 748.659 686.584C745.026 707.864 761.488 727.734 785.429 730.964C809.369 734.194 831.722 719.561 835.356 698.28Z" fill="#FF8889"/>
<path opacity="0.08" d="M792 728.756C814.656 728.756 833.023 712.43 833.023 692.291C833.023 672.152 814.656 655.826 792 655.826C769.344 655.826 750.977 672.152 750.977 692.291C750.977 712.43 769.344 728.756 792 728.756Z" fill="#FF8889"/>
<path opacity="0.09" d="M829.723 697.183C832.883 678.65 818.544 661.349 797.694 658.539C776.844 655.73 757.38 668.476 754.219 687.009C751.059 705.542 765.398 722.844 786.248 725.653C807.098 728.463 826.562 715.716 829.723 697.183Z" fill="#FF8889"/>
<path opacity="0.09" d="M826.8 697.35C830.158 680.249 817.283 663.966 798.045 660.981C778.806 657.997 760.488 669.44 757.13 686.541C753.772 703.643 766.646 719.925 785.885 722.91C805.124 725.895 823.442 714.451 826.8 697.35Z" fill="#FF8889"/>
<path opacity="0.1" d="M822.391 702.236C828.821 687.329 820.44 670.611 803.669 664.895C786.899 659.178 768.09 666.629 761.66 681.536C755.229 696.443 763.611 713.161 780.381 718.878C797.152 724.594 815.96 717.143 822.391 702.236Z" fill="#FF8889"/>
<path opacity="0.1" d="M792 718.08C808.403 718.08 821.7 706.26 821.7 691.68C821.7 677.099 808.403 665.28 792 665.28C775.597 665.28 762.3 677.099 762.3 691.68C762.3 706.26 775.597 718.08 792 718.08Z" fill="#FF8889"/>
<path opacity="0.3" d="M121.263 924H-83.6674L87.8687 796.405H224.489L121.263 924Z" fill="url(#paint11_linear_1034_1195)"/>
<path d="M194.789 764.726L135.389 754.166L87.8687 796.406H224.489L194.789 764.726Z" fill="url(#paint12_linear_1034_1195)"/>
<path opacity="0.6" d="M194.789 770.006L135.389 754.166L87.8687 796.406H224.489L194.789 770.006Z" fill="#1D1438"/>
<path d="M266.069 822.806H242.309L212.609 843.926H283.889L266.069 822.806Z" fill="url(#paint13_linear_1034_1195)"/>
<path opacity="0.6" d="M266.069 828.085H242.309L212.609 843.925H283.889L266.069 828.085Z" fill="#1D1438"/>
<path opacity="0.3" d="M241.251 924H141.459L212.609 843.925H283.889L241.251 924Z" fill="url(#paint14_linear_1034_1195)"/>
<path opacity="0.3" d="M426.077 452.546L361.053 434.841L-99 421.08V481.536L306.052 460.449L366.065 474.144H976.14L426.077 452.546Z" fill="#FF8889"/>
<path d="M738.54 570.24L492.624 586.08H706.464L724.284 580.8L976.14 586.08L738.54 570.24Z" fill="#FF8889"/>
<path opacity="0.5" d="M1041.48 530.112L702.9 551.232L1106.82 556.512L1421.64 530.112L1683 541.728V486.816L1041.48 530.112Z" fill="#FF8889"/>
<path d="M161.395 180.18C159.854 179.421 159.279 177.705 160.133 176.336C160.986 174.966 162.917 174.455 164.458 175.214L1002.98 586.625L161.395 180.18Z" fill="url(#paint15_linear_1034_1195)"/>
<path d="M1308.71 145.926C1302.58 145.926 1302.58 154.358 1308.71 154.358C1314.83 154.358 1314.83 145.926 1308.71 145.926Z" fill="#FF8889"/>
<path d="M676.69 129.03C670.564 129.03 670.564 137.461 676.69 137.461C682.815 137.461 682.815 129.03 676.69 129.03Z" fill="#E86E7A"/>
<path d="M1082.99 126.39C1079.16 126.39 1079.16 131.654 1082.99 131.654C1086.81 131.654 1086.81 126.39 1082.99 126.39Z" fill="#AE5368"/>
<path d="M505.618 54.582C501.794 54.582 501.794 59.862 505.618 59.862C509.442 59.862 509.442 54.582 505.618 54.582Z" fill="#AE5368"/>
<path d="M28.0418 198.198C24.2179 198.198 24.2179 203.462 28.0418 203.462C31.8656 203.462 31.8656 198.198 28.0418 198.198Z" fill="#AE5368"/>
<path d="M1187.53 297.462C1183.71 297.462 1183.71 302.725 1187.53 302.725C1191.35 302.725 1191.35 297.462 1187.53 297.462Z" fill="#AE5368"/>
<path d="M1339.59 422.086C1335.77 422.086 1335.77 427.35 1339.59 427.35C1343.42 427.35 1343.42 422.086 1339.59 422.086Z" fill="#FF8889"/>
<path d="M230.002 419.958C226.178 419.958 226.178 425.221 230.002 425.221C233.826 425.221 233.826 419.958 230.002 419.958Z" fill="#E86E7A"/>
<path d="M184.858 90.4858C181.034 90.4858 181.034 95.7658 184.858 95.7658C188.682 95.7658 188.682 90.4858 184.858 90.4858Z" fill="#E86E7A"/>
<path d="M850.138 82.0547C846.314 82.0547 846.314 87.3182 850.138 87.3182C853.962 87.3182 853.962 82.0547 850.138 82.0547Z" fill="#743859"/>
<path opacity="0.25" d="M1340.06 350.806C1335.38 357.967 1328.05 363.858 1318.71 367.158C1296.58 374.962 1271.54 365.359 1262.76 345.691C1253.98 326.04 1264.79 303.781 1286.91 295.96C1293.65 293.584 1300.69 292.809 1307.42 293.469C1304.1 293.799 1300.76 294.525 1297.49 295.68C1277.71 302.659 1268.02 322.591 1275.89 340.18C1283.74 357.769 1306.16 366.366 1325.95 359.386C1331.5 357.423 1336.25 354.453 1340.06 350.79V350.806Z" fill="#E86E7A"/>
<path d="M791.387 878.658L781.624 868.725L784.427 866.563L791.387 873.642L798.348 866.563L801.133 868.725L791.387 878.658Z" fill="#9C6285"/>
<path d="M793.856 831.6H790.144V874.5H793.856V831.6Z" fill="#9C6285"/>
<path d="M793.856 803.55H790.144V820.05H793.856V803.55Z" fill="#9C6285"/>
</g>
<defs>
<linearGradient id="paint0_linear_1034_1195" x1="771.655" y1="771.787" x2="812.547" y2="859.126" gradientUnits="userSpaceOnUse">
<stop stop-color="#FF8889"/>
<stop offset="1" stop-color="#37204D"/>
</linearGradient>
<radialGradient id="paint1_radial_1034_1195" cx="0" cy="0" r="1" gradientUnits="userSpaceOnUse" gradientTransform="translate(735.71 661.66) scale(36.638 31.2101)">
<stop stop-color="#E86E7A"/>
<stop offset="1" stop-color="#2A1E49"/>
</radialGradient>
<linearGradient id="paint2_linear_1034_1195" x1="845.611" y1="645.934" x2="847.96" y2="670.457" gradientUnits="userSpaceOnUse">
<stop stop-color="#743859"/>
<stop offset="0.16" stop-color="#793A5A"/>
<stop offset="0.36" stop-color="#88415E"/>
<stop offset="0.58" stop-color="#A24D66"/>
<stop offset="0.81" stop-color="#C55D70"/>
<stop offset="1" stop-color="#E86E7A"/>
</linearGradient>
<radialGradient id="paint3_radial_1034_1195" cx="0" cy="0" r="1" gradientUnits="userSpaceOnUse" gradientTransform="translate(785.873 609.517) scale(196.163 167.101)">
<stop stop-color="#FFE3DC"/>
<stop offset="0.72" stop-color="#E86E7A"/>
<stop offset="1" stop-color="#42234E"/>
</radialGradient>
<linearGradient id="paint4_linear_1034_1195" x1="723.69" y1="667.046" x2="723.69" y2="766.607" gradientUnits="userSpaceOnUse">
<stop stop-color="#743859"/>
<stop offset="1" stop-color="#42234E"/>
</linearGradient>
<linearGradient id="paint5_linear_1034_1195" x1="860.31" y1="667.046" x2="860.31" y2="766.607" gradientUnits="userSpaceOnUse">
<stop stop-color="#743859"/>
<stop offset="1" stop-color="#42234E"/>
</linearGradient>
<linearGradient id="paint6_linear_1034_1195" x1="-99" y1="587.697" x2="-97.5333" y2="771.873" gradientUnits="userSpaceOnUse">
<stop stop-color="#743859"/>
<stop offset="1" stop-color="#42234E"/>
</linearGradient>
<linearGradient id="paint7_linear_1034_1195" x1="723.69" y1="587.697" x2="723.69" y2="771.87" gradientUnits="userSpaceOnUse">
<stop stop-color="#E86E7A"/>
<stop offset="1" stop-color="#42234E"/>
</linearGradient>
<linearGradient id="paint8_linear_1034_1195" x1="860.31" y1="587.697" x2="860.31" y2="771.87" gradientUnits="userSpaceOnUse">
<stop stop-color="#743859"/>
<stop offset="1" stop-color="#42234E"/>
</linearGradient>
<linearGradient id="paint9_linear_1034_1195" x1="652.41" y1="755.222" x2="652.41" y2="770.418" gradientUnits="userSpaceOnUse">
<stop stop-color="#743859"/>
<stop offset="1" stop-color="#1D1438"/>
</linearGradient>
<linearGradient id="paint10_linear_1034_1195" x1="931.59" y1="747.384" x2="931.59" y2="770.121" gradientUnits="userSpaceOnUse">
<stop stop-color="#743859"/>
<stop offset="1" stop-color="#1D1438"/>
</linearGradient>
<linearGradient id="paint11_linear_1034_1195" x1="70.4199" y1="798.187" x2="70.4199" y2="921.838" gradientUnits="userSpaceOnUse">
<stop stop-color="#1D1438"/>
<stop offset="1" stop-color="#1D1438"/>
</linearGradient>
<linearGradient id="paint12_linear_1034_1195" x1="179.79" y1="757.383" x2="163.536" y2="791.358" gradientUnits="userSpaceOnUse">
<stop stop-color="#5D2D54"/>
<stop offset="1" stop-color="#1D1438"/>
</linearGradient>
<linearGradient id="paint13_linear_1034_1195" x1="248.509" y1="822.839" x2="248.347" y2="838.498" gradientUnits="userSpaceOnUse">
<stop stop-color="#5D2D54"/>
<stop offset="1" stop-color="#1D1438"/>
</linearGradient>
<linearGradient id="paint14_linear_1034_1195" x1="212.664" y1="848.809" x2="212.664" y2="926.244" gradientUnits="userSpaceOnUse">
<stop stop-color="#1D1438"/>
<stop offset="1" stop-color="#1D1438"/>
</linearGradient>
<linearGradient id="paint15_linear_1034_1195" x1="159.986" y1="176.38" x2="954.131" y2="665.712" gradientUnits="userSpaceOnUse">
<stop stop-color="#FF8889"/>
<stop offset="0.15" stop-color="#EA7B80"/>
<stop offset="0.29" stop-color="#DD727B"/>
<stop offset="0.57" stop-color="#E56F7A"/>
<stop offset="1" stop-color="#E86E7A"/>
</linearGradient>
<clipPath id="clip0_1034_1195">
<rect width="1782" height="924" fill="white" transform="translate(-99)"/>
</clipPath>
</defs>
</svg>
